<svg id="visual" viewBox="0 0 300 900" width="300" height="900" xmlns="http://www.w3.org/2000/svg" xmlns:xlink="http://www.w3.org/1999/xlink" version="1.1"><rect x="0" y="0" width="300" height="900" fill="#222"></rect><path d="M33 900L65 720L58 540L74 360L46 180L93 0L300 0L300 180L300 360L300 540L300 720L300 900Z" fill="#001122"></path><path d="M104 900L126 720L91 540L111 360L92 180L103 0L300 0L300 180L300 360L300 540L300 720L300 900Z" fill="#002955"></path><path d="M144 900L135 720L127 540L139 360L128 180L184 0L300 0L300 180L300 360L300 540L300 720L300 900Z" fill="#003e8c"></path><path d="M200 900L226 720L235 540L201 360L205 180L200 0L300 0L300 180L300 360L300 540L300 720L300 900Z" fill="#0052c5"></path><path d="M244 900L231 720L226 540L247 360L251 180L249 0L300 0L300 180L300 360L300 540L300 720L300 900Z" fill="#0066ff"></path></svg>