<svg id="visual" viewBox="0 0 300 900" width="300" height="900" xmlns="http://www.w3.org/2000/svg" xmlns:xlink="http://www.w3.org/1999/xlink" version="1.1"><rect x="0" y="0" width="300" height="900" fill="#222"></rect><path d="M223 0L195 180L235 360L191 540L233 720L240 900L0 900L0 720L0 540L0 360L0 180L0 0Z" fill="#001122"></path><path d="M159 0L176 180L209 360L155 540L190 720L195 900L0 900L0 720L0 540L0 360L0 180L0 0Z" fill="#002955"></path><path d="M148 0L113 180L136 360L133 540L122 720L137 900L0 900L0 720L0 540L0 360L0 180L0 0Z" fill="#003e8c"></path><path d="M68 0L71 180L110 360L80 540L82 720L128 900L0 900L0 720L0 540L0 360L0 180L0 0Z" fill="#0052c5"></path><path d="M29 0L69 180L21 360L47 540L24 720L37 900L0 900L0 720L0 540L0 360L0 180L0 0Z" fill="#0066ff"></path></svg>