<svg id="visual" viewBox="0 0 300 900" width="300" height="900" xmlns="http://www.w3.org/2000/svg" xmlns:xlink="http://www.w3.org/1999/xlink" version="1.1"><rect x="0" y="0" width="300" height="900" fill="#222"></rect><path d="M106 900L53 900L53 720L87 720L87 540L65 540L65 360L109 360L109 180L58 180L58 0L300 0L300 180L300 180L300 360L300 360L300 540L300 540L300 720L300 720L300 900L300 900Z" fill="#001122"></path><path d="M151 900L138 900L138 720L103 720L103 540L137 540L137 360L139 360L139 180L99 180L99 0L300 0L300 180L300 180L300 360L300 360L300 540L300 540L300 720L300 720L300 900L300 900Z" fill="#002955"></path><path d="M158 900L170 900L170 720L152 720L152 540L188 540L188 360L166 360L166 180L180 180L180 0L300 0L300 180L300 180L300 360L300 360L300 540L300 540L300 720L300 720L300 900L300 900Z" fill="#003e8c"></path><path d="M187 900L222 900L222 720L212 720L212 540L195 540L195 360L186 360L186 180L215 180L215 0L300 0L300 180L300 180L300 360L300 360L300 540L300 540L300 720L300 720L300 900L300 900Z" fill="#0052c5"></path><path d="M270 900L265 900L265 720L235 720L235 540L268 540L268 360L237 360L237 180L260 180L260 0L300 0L300 180L300 180L300 360L300 360L300 540L300 540L300 720L300 720L300 900L300 900Z" fill="#0066ff"></path></svg>