<svg id="visual" viewBox="0 0 300 900" width="300" height="900" xmlns="http://www.w3.org/2000/svg" xmlns:xlink="http://www.w3.org/1999/xlink" version="1.1"><rect x="0" y="0" width="300" height="900" fill="#222"></rect><path d="M252 0L239 0L239 180L222 180L222 360L251 360L251 540L200 540L200 720L222 720L222 900L0 900L0 720L0 720L0 540L0 540L0 360L0 360L0 180L0 180L0 0L0 0Z" fill="#001122"></path><path d="M165 0L172 0L172 180L159 180L159 360L207 360L207 540L176 540L176 720L161 720L161 900L0 900L0 720L0 720L0 540L0 540L0 360L0 360L0 180L0 180L0 0L0 0Z" fill="#002955"></path><path d="M115 0L160 0L160 180L124 180L124 360L147 360L147 540L111 540L111 720L123 720L123 900L0 900L0 720L0 720L0 540L0 540L0 360L0 360L0 180L0 180L0 0L0 0Z" fill="#003e8c"></path><path d="M85 0L101 0L101 180L106 180L106 360L85 360L85 540L99 540L99 720L84 720L84 900L0 900L0 720L0 720L0 540L0 540L0 360L0 360L0 180L0 180L0 0L0 0Z" fill="#0052c5"></path><path d="M63 0L44 0L44 180L48 180L48 360L62 360L62 540L59 540L59 720L33 720L33 900L0 900L0 720L0 720L0 540L0 540L0 360L0 360L0 180L0 180L0 0L0 0Z" fill="#0066ff"></path></svg>